<svg width="18" height="20" viewBox="0 0 18 20" fill="none" xmlns="http://www.w3.org/2000/svg">
<path d="M8 0H5V2L8 0Z" fill="black" fill-opacity="0.65"/>
<path d="M5 2L8 0V18L5 20V2Z" fill="#A1A1A1"/>
<line y1="16" x2="4.5" y2="16" stroke="black"/>
<line x1="6" y1="16" x2="9" y2="16" stroke="#EB002F"/>
<line x1="10" y1="16" x2="13" y2="16" stroke="#EB002F"/>
<path d="M15 16L13 15V17L15 16Z" fill="#EB002F"/>
<line x1="2.5" y1="13" x2="4.5" y2="13" stroke="black"/>
<line x1="7" y1="13" x2="13" y2="13" stroke="black"/>
<line x1="14" y1="13" x2="16" y2="13" stroke="black"/>
<path d="M18 13L16 12V14L18 13Z" fill="black"/>
<line y1="7" x2="4.5" y2="7" stroke="black"/>
<line x1="6" y1="7" x2="9" y2="7" stroke="#002FEB"/>
<line x1="10" y1="7" x2="13" y2="7" stroke="#002FEB"/>
<path d="M15 7L13 6V8L15 7Z" fill="#002FEB"/>
<line x1="2.5" y1="4" x2="4.5" y2="4" stroke="black"/>
<line x1="7" y1="4" x2="13" y2="4" stroke="#00CC00"/>
<line x1="14" y1="4" x2="16" y2="4" stroke="#00CC00"/>
<path d="M18 4L16 3V5L18 4Z" fill="#00CC00"/>
</svg>
